<svg width="230" height="80" viewBox="0 0 230 80" fill="none" xmlns="http://www.w3.org/2000/svg">
<path d="M2.25 49V14.0909H17.3182C19.9091 14.0909 22.1761 14.6023 24.1193 15.625C26.0625 16.6477 27.5739 18.0852 28.6534 19.9375C29.733 21.7898 30.2727 23.9545 30.2727 26.4318C30.2727 28.9318 29.7159 31.0966 28.6023 32.9261C27.5 34.7557 25.9489 36.1648 23.9489 37.1534C21.9602 38.142 19.6364 38.6364 16.9773 38.6364H7.97727V31.2727H15.0682C16.1818 31.2727 17.1307 31.0795 17.9148 30.6932C18.7102 30.2955 19.3182 29.733 19.7386 29.0057C20.1705 28.2784 20.3864 27.4205 20.3864 26.4318C20.3864 25.4318 20.1705 24.5795 19.7386 23.875C19.3182 23.1591 18.7102 22.6136 17.9148 22.2386C17.1307 21.8523 16.1818 21.6591 15.0682 21.6591H11.7273V49H2.25ZM64.6882 31.5455C64.6882 35.4318 63.9325 38.7102 62.4211 41.3807C60.9098 44.0398 58.87 46.0568 56.3018 47.4318C53.7336 48.7955 50.87 49.4773 47.7109 49.4773C44.5291 49.4773 41.6541 48.7898 39.0859 47.4148C36.5291 46.0284 34.495 44.0057 32.9836 41.3466C31.4836 38.6761 30.7336 35.4091 30.7336 31.5455C30.7336 27.6591 31.4836 24.3864 32.9836 21.7273C34.495 19.0568 36.5291 17.0398 39.0859 15.6761C41.6541 14.3011 44.5291 13.6136 47.7109 13.6136C50.87 13.6136 53.7336 14.3011 56.3018 15.6761C58.87 17.0398 60.9098 19.0568 62.4211 21.7273C63.9325 24.3864 64.6882 27.6591 64.6882 31.5455ZM54.9382 31.5455C54.9382 29.4545 54.6598 27.6932 54.103 26.2614C53.5575 24.8182 52.745 23.7273 51.6655 22.9886C50.5973 22.2386 49.2791 21.8636 47.7109 21.8636C46.1427 21.8636 44.8189 22.2386 43.7393 22.9886C42.6711 23.7273 41.8586 24.8182 41.3018 26.2614C40.7564 27.6932 40.4836 29.4545 40.4836 31.5455C40.4836 33.6364 40.7564 35.4034 41.3018 36.8466C41.8586 38.2784 42.6711 39.3693 43.7393 40.1193C44.8189 40.858 46.1427 41.2273 47.7109 41.2273C49.2791 41.2273 50.5973 40.858 51.6655 40.1193C52.745 39.3693 53.5575 38.2784 54.103 36.8466C54.6598 35.4034 54.9382 33.6364 54.9382 31.5455ZM85.0113 25C84.9204 23.8636 84.4943 22.9773 83.7329 22.3409C82.9829 21.7045 81.8409 21.3864 80.3068 21.3864C79.3295 21.3864 78.5283 21.5057 77.9033 21.7443C77.2897 21.9716 76.8352 22.2841 76.5397 22.6818C76.2443 23.0795 76.0909 23.5341 76.0795 24.0455C76.0568 24.4659 76.1306 24.8466 76.3011 25.1875C76.4829 25.517 76.767 25.8182 77.1533 26.0909C77.5397 26.3523 78.034 26.5909 78.6363 26.8068C79.2386 27.0227 79.9545 27.2159 80.784 27.3864L83.6477 28C85.5795 28.4091 87.2329 28.9489 88.6079 29.6193C89.9829 30.2898 91.1079 31.0795 91.9829 31.9886C92.8579 32.8864 93.4999 33.8977 93.909 35.0227C94.3295 36.1477 94.5454 37.375 94.5568 38.7045C94.5454 41 93.9715 42.9432 92.8352 44.5341C91.6988 46.125 90.0738 47.3352 87.9602 48.1648C85.8579 48.9943 83.3295 49.4091 80.3749 49.4091C77.3409 49.4091 74.6931 48.9602 72.4318 48.0625C70.1818 47.1648 68.4318 45.7841 67.1818 43.9205C65.9431 42.0455 65.3181 39.6477 65.3068 36.7273H74.3068C74.3636 37.7955 74.6306 38.6932 75.1079 39.4205C75.5852 40.1477 76.2556 40.6989 77.1193 41.0739C77.9943 41.4489 79.034 41.6364 80.2386 41.6364C81.2499 41.6364 82.0965 41.5114 82.7784 41.2614C83.4602 41.0114 83.9772 40.6648 84.3295 40.2216C84.6818 39.7784 84.8636 39.2727 84.8749 38.7045C84.8636 38.1705 84.6874 37.7045 84.3465 37.3068C84.017 36.8977 83.4715 36.5341 82.7102 36.2159C81.9488 35.8864 80.9204 35.5795 79.6249 35.2955L76.1477 34.5455C73.0568 33.875 70.6193 32.7557 68.8352 31.1875C67.0624 29.608 66.1818 27.4545 66.1931 24.7273C66.1818 22.5114 66.7727 20.5739 67.9659 18.9148C69.1704 17.2443 70.8352 15.9432 72.9602 15.0114C75.0965 14.0795 77.5454 13.6136 80.3068 13.6136C83.1249 13.6136 85.5624 14.0852 87.6193 15.0284C89.6761 15.9716 91.2613 17.3011 92.3749 19.017C93.4999 20.7216 94.0681 22.7159 94.0795 25H85.0113ZM94.3273 21.7273V14.0909H124.668V21.7273H114.168V49H104.827V21.7273H94.3273ZM125.355 49V14.0909H140.423C143.014 14.0909 145.281 14.5625 147.224 15.5057C149.167 16.4489 150.679 17.8068 151.758 19.5795C152.838 21.3523 153.378 23.4773 153.378 25.9545C153.378 28.4545 152.821 30.5625 151.707 32.2784C150.605 33.9943 149.054 35.2898 147.054 36.1648C145.065 37.0398 142.741 37.4773 140.082 37.4773H131.082V30.1136H138.173C139.287 30.1136 140.236 29.9773 141.02 29.7045C141.815 29.4205 142.423 28.9716 142.844 28.358C143.275 27.7443 143.491 26.9432 143.491 25.9545C143.491 24.9545 143.275 24.142 142.844 23.517C142.423 22.8807 141.815 22.4148 141.02 22.1193C140.236 21.8125 139.287 21.6591 138.173 21.6591H134.832V49H125.355ZM145.81 32.9773L154.537 49H144.241L135.719 32.9773H145.81ZM201.315 49V14.0909H210.792V41.3636H224.906V49H201.315Z" fill="white"/>
<path d="M160.5 49L174.5 15L197.305 54.5L159.2 32.5H195" stroke="white" stroke-width="7"/>
</svg>
